<?xml version="1.0" encoding="UTF-8" standalone="no"?>
<!DOCTYPE svg PUBLIC "-//W3C//DTD SVG 1.1//EN"
 "http://www.w3.org/Graphics/SVG/1.1/DTD/svg11.dtd">
<!-- Generated by graphviz version 2.43.0 (0)
 -->
<!-- Title: %3 Pages: 1 -->
<svg width="851pt" height="210pt"
 viewBox="0.00 0.00 851.00 210.00" xmlns="http://www.w3.org/2000/svg" xmlns:xlink="http://www.w3.org/1999/xlink">
<g id="graph0" class="graph" transform="scale(1 1) rotate(0) translate(4 206)">
<title>%3</title>
<polygon fill="white" stroke="transparent" points="-4,4 -4,-206 847,-206 847,4 -4,4"/>
<!-- 137250447220816 -->
<g id="node1" class="node">
<title>137250447220816</title>
<polygon fill="none" stroke="black" points="324.5,-55.5 324.5,-91.5 516.5,-91.5 516.5,-55.5 324.5,-55.5"/>
<text text-anchor="middle" x="336" y="-69.8" font-family="Times,serif" font-size="14.00">e</text>
<polyline fill="none" stroke="black" points="347.5,-55.5 347.5,-91.5 "/>
<text text-anchor="middle" x="391" y="-69.8" font-family="Times,serif" font-size="14.00">data 20.0000</text>
<polyline fill="none" stroke="black" points="434.5,-55.5 434.5,-91.5 "/>
<text text-anchor="middle" x="475.5" y="-69.8" font-family="Times,serif" font-size="14.00">grad 1.0000</text>
</g>
<!-- 137250447217984+ -->
<g id="node9" class="node">
<title>137250447217984+</title>
<ellipse fill="none" stroke="black" cx="581" cy="-100.5" rx="27" ry="18"/>
<text text-anchor="middle" x="581" y="-96.8" font-family="Times,serif" font-size="14.00">+</text>
</g>
<!-- 137250447220816&#45;&gt;137250447217984+ -->
<g id="edge5" class="edge">
<title>137250447220816&#45;&gt;137250447217984+</title>
<path fill="none" stroke="black" d="M516.9,-89.75C526.78,-91.43 536.31,-93.06 544.85,-94.51"/>
<polygon fill="black" stroke="black" points="544.27,-97.96 554.71,-96.19 545.44,-91.06 544.27,-97.96"/>
</g>
<!-- 137250447220816* -->
<g id="node2" class="node">
<title>137250447220816*</title>
<ellipse fill="none" stroke="black" cx="260" cy="-73.5" rx="27" ry="18"/>
<text text-anchor="middle" x="260" y="-69.8" font-family="Times,serif" font-size="14.00">*</text>
</g>
<!-- 137250447220816*&#45;&gt;137250447220816 -->
<g id="edge1" class="edge">
<title>137250447220816*&#45;&gt;137250447220816</title>
<path fill="none" stroke="black" d="M287.17,-73.5C295.15,-73.5 304.46,-73.5 314.38,-73.5"/>
<polygon fill="black" stroke="black" points="314.47,-77 324.47,-73.5 314.47,-70 314.47,-77"/>
</g>
<!-- 137250447225472 -->
<g id="node3" class="node">
<title>137250447225472</title>
<polygon fill="none" stroke="black" points="2.5,-55.5 2.5,-91.5 194.5,-91.5 194.5,-55.5 2.5,-55.5"/>
<text text-anchor="middle" x="14" y="-69.8" font-family="Times,serif" font-size="14.00">a</text>
<polyline fill="none" stroke="black" points="25.5,-55.5 25.5,-91.5 "/>
<text text-anchor="middle" x="65.5" y="-69.8" font-family="Times,serif" font-size="14.00">data 2.0000</text>
<polyline fill="none" stroke="black" points="105.5,-55.5 105.5,-91.5 "/>
<text text-anchor="middle" x="150" y="-69.8" font-family="Times,serif" font-size="14.00">grad 10.0000</text>
</g>
<!-- 137250447225472&#45;&gt;137250447220816* -->
<g id="edge4" class="edge">
<title>137250447225472&#45;&gt;137250447220816*</title>
<path fill="none" stroke="black" d="M194.58,-73.5C204.55,-73.5 214.17,-73.5 222.82,-73.5"/>
<polygon fill="black" stroke="black" points="222.83,-77 232.83,-73.5 222.83,-70 222.83,-77"/>
</g>
<!-- 137250447221392 -->
<g id="node4" class="node">
<title>137250447221392</title>
<polygon fill="none" stroke="black" points="323,-110.5 323,-146.5 518,-146.5 518,-110.5 323,-110.5"/>
<text text-anchor="middle" x="333.5" y="-124.8" font-family="Times,serif" font-size="14.00">f</text>
<polyline fill="none" stroke="black" points="344,-110.5 344,-146.5 "/>
<text text-anchor="middle" x="390" y="-124.8" font-family="Times,serif" font-size="14.00">data &#45;60.0000</text>
<polyline fill="none" stroke="black" points="436,-110.5 436,-146.5 "/>
<text text-anchor="middle" x="477" y="-124.8" font-family="Times,serif" font-size="14.00">grad 1.0000</text>
</g>
<!-- 137250447221392&#45;&gt;137250447217984+ -->
<g id="edge6" class="edge">
<title>137250447221392&#45;&gt;137250447217984+</title>
<path fill="none" stroke="black" d="M518.27,-111.41C527.59,-109.76 536.57,-108.17 544.66,-106.74"/>
<polygon fill="black" stroke="black" points="545.49,-110.15 554.73,-104.96 544.28,-103.26 545.49,-110.15"/>
</g>
<!-- 137250447221392* -->
<g id="node5" class="node">
<title>137250447221392*</title>
<ellipse fill="none" stroke="black" cx="260" cy="-128.5" rx="27" ry="18"/>
<text text-anchor="middle" x="260" y="-124.8" font-family="Times,serif" font-size="14.00">*</text>
</g>
<!-- 137250447221392*&#45;&gt;137250447221392 -->
<g id="edge2" class="edge">
<title>137250447221392*&#45;&gt;137250447221392</title>
<path fill="none" stroke="black" d="M287.17,-128.5C294.66,-128.5 303.32,-128.5 312.56,-128.5"/>
<polygon fill="black" stroke="black" points="312.78,-132 322.78,-128.5 312.78,-125 312.78,-132"/>
</g>
<!-- 137250447226528 -->
<g id="node6" class="node">
<title>137250447226528</title>
<polygon fill="none" stroke="black" points="0.5,-165.5 0.5,-201.5 196.5,-201.5 196.5,-165.5 0.5,-165.5"/>
<text text-anchor="middle" x="12" y="-179.8" font-family="Times,serif" font-size="14.00">d</text>
<polyline fill="none" stroke="black" points="23.5,-165.5 23.5,-201.5 "/>
<text text-anchor="middle" x="67" y="-179.8" font-family="Times,serif" font-size="14.00">data 20.0000</text>
<polyline fill="none" stroke="black" points="110.5,-165.5 110.5,-201.5 "/>
<text text-anchor="middle" x="153.5" y="-179.8" font-family="Times,serif" font-size="14.00">grad &#45;3.0000</text>
</g>
<!-- 137250447226528&#45;&gt;137250447221392* -->
<g id="edge9" class="edge">
<title>137250447226528&#45;&gt;137250447221392*</title>
<path fill="none" stroke="black" d="M169.68,-165.47C178.94,-162.68 188.25,-159.67 197,-156.5 207.52,-152.69 218.74,-147.87 228.71,-143.3"/>
<polygon fill="black" stroke="black" points="230.24,-146.45 237.82,-139.05 227.27,-140.11 230.24,-146.45"/>
</g>
<!-- 137250447226144 -->
<g id="node7" class="node">
<title>137250447226144</title>
<polygon fill="none" stroke="black" points="2.5,-0.5 2.5,-36.5 194.5,-36.5 194.5,-0.5 2.5,-0.5"/>
<text text-anchor="middle" x="14" y="-14.8" font-family="Times,serif" font-size="14.00">c</text>
<polyline fill="none" stroke="black" points="25.5,-0.5 25.5,-36.5 "/>
<text text-anchor="middle" x="69" y="-14.8" font-family="Times,serif" font-size="14.00">data 10.0000</text>
<polyline fill="none" stroke="black" points="112.5,-0.5 112.5,-36.5 "/>
<text text-anchor="middle" x="153.5" y="-14.8" font-family="Times,serif" font-size="14.00">grad 2.0000</text>
</g>
<!-- 137250447226144&#45;&gt;137250447220816* -->
<g id="edge8" class="edge">
<title>137250447226144&#45;&gt;137250447220816*</title>
<path fill="none" stroke="black" d="M166.74,-36.56C176.95,-39.66 187.31,-43.01 197,-46.5 207.27,-50.19 218.27,-54.77 228.1,-59.09"/>
<polygon fill="black" stroke="black" points="226.92,-62.4 237.47,-63.3 229.78,-56.01 226.92,-62.4"/>
</g>
<!-- 137250447217984 -->
<g id="node8" class="node">
<title>137250447217984</title>
<polygon fill="none" stroke="black" points="644,-82.5 644,-118.5 843,-118.5 843,-82.5 644,-82.5"/>
<text text-anchor="middle" x="656.5" y="-96.8" font-family="Times,serif" font-size="14.00">L</text>
<polyline fill="none" stroke="black" points="669,-82.5 669,-118.5 "/>
<text text-anchor="middle" x="715" y="-96.8" font-family="Times,serif" font-size="14.00">data &#45;40.0000</text>
<polyline fill="none" stroke="black" points="761,-82.5 761,-118.5 "/>
<text text-anchor="middle" x="802" y="-96.8" font-family="Times,serif" font-size="14.00">grad 1.0000</text>
</g>
<!-- 137250447217984+&#45;&gt;137250447217984 -->
<g id="edge3" class="edge">
<title>137250447217984+&#45;&gt;137250447217984</title>
<path fill="none" stroke="black" d="M608.14,-100.5C615.65,-100.5 624.33,-100.5 633.6,-100.5"/>
<polygon fill="black" stroke="black" points="633.86,-104 643.86,-100.5 633.86,-97 633.86,-104"/>
</g>
<!-- 137250447227776 -->
<g id="node10" class="node">
<title>137250447227776</title>
<polygon fill="none" stroke="black" points="0,-110.5 0,-146.5 197,-146.5 197,-110.5 0,-110.5"/>
<text text-anchor="middle" x="11.5" y="-124.8" font-family="Times,serif" font-size="14.00">b</text>
<polyline fill="none" stroke="black" points="23,-110.5 23,-146.5 "/>
<text text-anchor="middle" x="65.5" y="-124.8" font-family="Times,serif" font-size="14.00">data &#45;3.0000</text>
<polyline fill="none" stroke="black" points="108,-110.5 108,-146.5 "/>
<text text-anchor="middle" x="152.5" y="-124.8" font-family="Times,serif" font-size="14.00">grad 20.0000</text>
</g>
<!-- 137250447227776&#45;&gt;137250447221392* -->
<g id="edge7" class="edge">
<title>137250447227776&#45;&gt;137250447221392*</title>
<path fill="none" stroke="black" d="M197.33,-128.5C206.29,-128.5 214.92,-128.5 222.75,-128.5"/>
<polygon fill="black" stroke="black" points="222.88,-132 232.88,-128.5 222.88,-125 222.88,-132"/>
</g>
</g>
</svg>
